<?xml version="1.0" encoding="UTF-8" standalone="no"?>
<!-- Created with Inkscape (http://www.inkscape.org/) -->

<svg
   xmlns:dc="http://purl.org/dc/elements/1.1/"
   xmlns:cc="http://creativecommons.org/ns#"
   xmlns:rdf="http://www.w3.org/1999/02/22-rdf-syntax-ns#"
   xmlns:svg="http://www.w3.org/2000/svg"
   xmlns="http://www.w3.org/2000/svg"
   xmlns:xlink="http://www.w3.org/1999/xlink"
   xmlns:sodipodi="http://sodipodi.sourceforge.net/DTD/sodipodi-0.dtd"
   xmlns:inkscape="http://www.inkscape.org/namespaces/inkscape"
   width="29.641634"
   height="29.641634"
   id="svg2"
   version="1.1"
   inkscape:version="0.48.3.1 r9886"
   sodipodi:docname="system_mit_basis.svg"
   inkscape:export-filename="/home/bktheg/Projects/rds/web/data/interface/system_mit_basis.png"
   inkscape:export-xdpi="91.089996"
   inkscape:export-ydpi="91.089996">
  <defs
     id="defs4">
    <linearGradient
       id="linearGradient3820">
      <stop
         id="stop3822"
         offset="0"
         style="stop-color:#000000;stop-opacity:0;" />
      <stop
         style="stop-color:#000000;stop-opacity:0.04680851;"
         offset="0.63581169"
         id="stop3824" />
      <stop
         id="stop3910"
         offset="0.85440683"
         style="stop-color:#000000;stop-opacity:0.41702127;" />
      <stop
         style="stop-color:#000000;stop-opacity:0.38297874;"
         offset="0.97845316"
         id="stop3912" />
      <stop
         id="stop3826"
         offset="1"
         style="stop-color:#000000;stop-opacity:0.45957446;" />
    </linearGradient>
    <linearGradient
       id="linearGradient3755">
      <stop
         style="stop-color:#00c847;stop-opacity:0.27234042;"
         offset="0"
         id="stop3757" />
      <stop
         id="stop3763"
         offset="0.16061807"
         style="stop-color:#00c847;stop-opacity:0.39574468;" />
      <stop
         style="stop-color:#00b440;stop-opacity:1;"
         offset="1"
         id="stop3759" />
    </linearGradient>
    <radialGradient
       inkscape:collect="always"
       xlink:href="#linearGradient3755"
       id="radialGradient3761"
       cx="414.55557"
       cy="354.30728"
       fx="414.55557"
       fy="354.30728"
       r="111.61678"
       gradientUnits="userSpaceOnUse" />
    <radialGradient
       inkscape:collect="always"
       xlink:href="#linearGradient3820"
       id="radialGradient3818"
       gradientUnits="userSpaceOnUse"
       cx="409.50482"
       cy="366.42911"
       fx="409.50482"
       fy="366.42911"
       r="111.61678"
       gradientTransform="matrix(0.948931,0.00257064,-0.00249638,0.9215162,21.827732,27.706061)" />
    <mask
       maskUnits="userSpaceOnUse"
       id="mask4239">
      <path
         d="m 492.95446,405.86456 a 111.11678,111.11678 0 1 1 -222.23357,0 111.11678,111.11678 0 1 1 222.23357,0 z"
         sodipodi:ry="111.11678"
         sodipodi:rx="111.11678"
         sodipodi:cy="405.86456"
         sodipodi:cx="381.83768"
         id="path4241"
         style="fill:#ffffff;fill-opacity:1;fill-rule:nonzero;stroke:none"
         sodipodi:type="arc"
         inkscape:export-xdpi="93.620003"
         inkscape:export-ydpi="93.620003"
         transform="translate(-0.97298474,1.6085417)" />
    </mask>
    <mask
       maskUnits="userSpaceOnUse"
       id="mask4243">
      <path
         d="m 492.95446,405.86456 a 111.11678,111.11678 0 1 1 -222.23357,0 111.11678,111.11678 0 1 1 222.23357,0 z"
         sodipodi:ry="111.11678"
         sodipodi:rx="111.11678"
         sodipodi:cy="405.86456"
         sodipodi:cx="381.83768"
         id="path4245"
         style="fill:#ffffff;fill-opacity:1;fill-rule:nonzero;stroke:none"
         sodipodi:type="arc"
         inkscape:export-xdpi="93.620003"
         inkscape:export-ydpi="93.620003"
         transform="matrix(0.12977593,0,0,0.12977593,332.21947,353.20805)" />
    </mask>
    <mask
       maskUnits="userSpaceOnUse"
       id="mask4247">
      <path
         d="m 492.95446,405.86456 a 111.11678,111.11678 0 1 1 -222.23357,0 111.11678,111.11678 0 1 1 222.23357,0 z"
         sodipodi:ry="111.11678"
         sodipodi:rx="111.11678"
         sodipodi:cy="405.86456"
         sodipodi:cx="381.83768"
         id="path4249"
         style="fill:#ffffff;fill-opacity:1;fill-rule:nonzero;stroke:none"
         sodipodi:type="arc"
         inkscape:export-xdpi="93.620003"
         inkscape:export-ydpi="93.620003"
         transform="matrix(0.12977593,0,0,0.12977593,332.21947,353.20805)" />
    </mask>
    <mask
       maskUnits="userSpaceOnUse"
       id="mask4251">
      <path
         d="m 492.95446,405.86456 a 111.11678,111.11678 0 1 1 -222.23357,0 111.11678,111.11678 0 1 1 222.23357,0 z"
         sodipodi:ry="111.11678"
         sodipodi:rx="111.11678"
         sodipodi:cy="405.86456"
         sodipodi:cx="381.83768"
         id="path4253"
         style="fill:#ffffff;fill-opacity:1;fill-rule:nonzero;stroke:none"
         sodipodi:type="arc"
         inkscape:export-xdpi="93.620003"
         inkscape:export-ydpi="93.620003"
         transform="matrix(0.12977593,0,0,0.12977593,332.21947,353.20805)" />
    </mask>
    <mask
       maskUnits="userSpaceOnUse"
       id="mask4255">
      <path
         d="m 492.95446,405.86456 a 111.11678,111.11678 0 1 1 -222.23357,0 111.11678,111.11678 0 1 1 222.23357,0 z"
         sodipodi:ry="111.11678"
         sodipodi:rx="111.11678"
         sodipodi:cy="405.86456"
         sodipodi:cx="381.83768"
         id="path4257"
         style="fill:#ffffff;fill-opacity:1;fill-rule:nonzero;stroke:none"
         sodipodi:type="arc"
         inkscape:export-xdpi="93.620003"
         inkscape:export-ydpi="93.620003"
         transform="matrix(0.12977593,0,0,0.12977593,332.21947,353.20805)" />
    </mask>
    <mask
       maskUnits="userSpaceOnUse"
       id="mask4259">
      <path
         d="m 492.95446,405.86456 a 111.11678,111.11678 0 1 1 -222.23357,0 111.11678,111.11678 0 1 1 222.23357,0 z"
         sodipodi:ry="111.11678"
         sodipodi:rx="111.11678"
         sodipodi:cy="405.86456"
         sodipodi:cx="381.83768"
         id="path4261"
         style="fill:#ffffff;fill-opacity:1;fill-rule:nonzero;stroke:none"
         sodipodi:type="arc"
         inkscape:export-xdpi="93.620003"
         inkscape:export-ydpi="93.620003"
         transform="matrix(0.12977593,0,0,0.12977593,332.21947,353.20805)" />
    </mask>
    <mask
       maskUnits="userSpaceOnUse"
       id="mask4263">
      <path
         d="m 492.95446,405.86456 a 111.11678,111.11678 0 1 1 -222.23357,0 111.11678,111.11678 0 1 1 222.23357,0 z"
         sodipodi:ry="111.11678"
         sodipodi:rx="111.11678"
         sodipodi:cy="405.86456"
         sodipodi:cx="381.83768"
         id="path4265"
         style="fill:#ffffff;fill-opacity:1;fill-rule:nonzero;stroke:none"
         sodipodi:type="arc"
         inkscape:export-xdpi="93.620003"
         inkscape:export-ydpi="93.620003"
         transform="matrix(0.12977593,0,0,0.12977593,332.21947,353.20805)" />
    </mask>
    <mask
       maskUnits="userSpaceOnUse"
       id="mask4267">
      <path
         d="m 492.95446,405.86456 a 111.11678,111.11678 0 1 1 -222.23357,0 111.11678,111.11678 0 1 1 222.23357,0 z"
         sodipodi:ry="111.11678"
         sodipodi:rx="111.11678"
         sodipodi:cy="405.86456"
         sodipodi:cx="381.83768"
         id="path4269"
         style="fill:#ffffff;fill-opacity:1;fill-rule:nonzero;stroke:none"
         sodipodi:type="arc"
         inkscape:export-xdpi="93.620003"
         inkscape:export-ydpi="93.620003"
         transform="matrix(0.12977593,0,0,0.12977593,332.21947,353.20805)" />
    </mask>
    <mask
       maskUnits="userSpaceOnUse"
       id="mask4271">
      <path
         d="m 492.95446,405.86456 a 111.11678,111.11678 0 1 1 -222.23357,0 111.11678,111.11678 0 1 1 222.23357,0 z"
         sodipodi:ry="111.11678"
         sodipodi:rx="111.11678"
         sodipodi:cy="405.86456"
         sodipodi:cx="381.83768"
         id="path4273"
         style="fill:#ffffff;fill-opacity:1;fill-rule:nonzero;stroke:none"
         sodipodi:type="arc"
         inkscape:export-xdpi="93.620003"
         inkscape:export-ydpi="93.620003"
         transform="matrix(0.12977593,0,0,0.12977593,332.21947,353.20805)" />
    </mask>
    <mask
       maskUnits="userSpaceOnUse"
       id="mask4275">
      <path
         d="m 492.95446,405.86456 a 111.11678,111.11678 0 1 1 -222.23357,0 111.11678,111.11678 0 1 1 222.23357,0 z"
         sodipodi:ry="111.11678"
         sodipodi:rx="111.11678"
         sodipodi:cy="405.86456"
         sodipodi:cx="381.83768"
         id="path4277"
         style="fill:#ffffff;fill-opacity:1;fill-rule:nonzero;stroke:none"
         sodipodi:type="arc"
         inkscape:export-xdpi="93.620003"
         inkscape:export-ydpi="93.620003"
         transform="matrix(0.12977593,0,0,0.12977593,332.21947,353.20805)" />
    </mask>
    <mask
       maskUnits="userSpaceOnUse"
       id="mask4279">
      <path
         d="m 492.95446,405.86456 a 111.11678,111.11678 0 1 1 -222.23357,0 111.11678,111.11678 0 1 1 222.23357,0 z"
         sodipodi:ry="111.11678"
         sodipodi:rx="111.11678"
         sodipodi:cy="405.86456"
         sodipodi:cx="381.83768"
         id="path4281"
         style="fill:#ffffff;fill-opacity:1;fill-rule:nonzero;stroke:none"
         sodipodi:type="arc"
         inkscape:export-xdpi="93.620003"
         inkscape:export-ydpi="93.620003"
         transform="matrix(0.12977593,0,0,0.12977593,332.21947,353.20805)" />
    </mask>
    <mask
       maskUnits="userSpaceOnUse"
       id="mask4283">
      <path
         d="m 492.95446,405.86456 a 111.11678,111.11678 0 1 1 -222.23357,0 111.11678,111.11678 0 1 1 222.23357,0 z"
         sodipodi:ry="111.11678"
         sodipodi:rx="111.11678"
         sodipodi:cy="405.86456"
         sodipodi:cx="381.83768"
         id="path4285"
         style="fill:#ffffff;fill-opacity:1;fill-rule:nonzero;stroke:none"
         sodipodi:type="arc"
         inkscape:export-xdpi="93.620003"
         inkscape:export-ydpi="93.620003"
         transform="translate(-0.97298474,0.32687109)" />
    </mask>
    <mask
       maskUnits="userSpaceOnUse"
       id="mask4287">
      <path
         d="m 492.95446,405.86456 a 111.11678,111.11678 0 1 1 -222.23357,0 111.11678,111.11678 0 1 1 222.23357,0 z"
         sodipodi:ry="111.11678"
         sodipodi:rx="111.11678"
         sodipodi:cy="405.86456"
         sodipodi:cx="381.83768"
         id="path4289"
         style="fill:#ffffff;fill-opacity:1;fill-rule:nonzero;stroke:none"
         sodipodi:type="arc"
         inkscape:export-xdpi="93.620003"
         inkscape:export-ydpi="93.620003"
         transform="translate(-0.97298474,0.32687109)" />
    </mask>
    <mask
       maskUnits="userSpaceOnUse"
       id="mask4291">
      <path
         d="m 492.95446,405.86456 a 111.11678,111.11678 0 1 1 -222.23357,0 111.11678,111.11678 0 1 1 222.23357,0 z"
         sodipodi:ry="111.11678"
         sodipodi:rx="111.11678"
         sodipodi:cy="405.86456"
         sodipodi:cx="381.83768"
         id="path4293"
         style="fill:#ffffff;fill-opacity:1;fill-rule:nonzero;stroke:none"
         sodipodi:type="arc"
         inkscape:export-xdpi="93.620003"
         inkscape:export-ydpi="93.620003"
         transform="matrix(1.1221574,0,0,1.1221574,-47.736159,-49.212528)" />
    </mask>
  </defs>
  <sodipodi:namedview
     id="base"
     pagecolor="#ffffff"
     bordercolor="#666666"
     borderopacity="1.0"
     inkscape:pageopacity="0.0"
     inkscape:pageshadow="2"
     inkscape:zoom="11.2"
     inkscape:cx="17.248456"
     inkscape:cy="10.091033"
     inkscape:document-units="px"
     inkscape:current-layer="layer1"
     showgrid="false"
     inkscape:window-width="1485"
     inkscape:window-height="930"
     inkscape:window-x="500"
     inkscape:window-y="126"
     inkscape:window-maximized="0"
     fit-margin-top="0"
     fit-margin-left="0"
     fit-margin-right="0"
     fit-margin-bottom="0" />
  <metadata
     id="metadata7">
    <rdf:RDF>
      <cc:Work
         rdf:about="">
        <dc:format>image/svg+xml</dc:format>
        <dc:type
           rdf:resource="http://purl.org/dc/dcmitype/StillImage" />
        <dc:title></dc:title>
        <dc:creator>
          <cc:Agent>
            <dc:title>Christopher Jung</dc:title>
          </cc:Agent>
        </dc:creator>
        <dc:rights>
          <cc:Agent>
            <dc:title>CC-BY 3.0</dc:title>
          </cc:Agent>
        </dc:rights>
        <dc:source>bktheg@web.de</dc:source>
        <dc:date>02.03.2013</dc:date>
      </cc:Work>
    </rdf:RDF>
  </metadata>
  <g
     inkscape:label="Ebene 1"
     inkscape:groupmode="layer"
     id="layer1"
     transform="translate(-367.07702,-391.01559)">
    <path
       sodipodi:type="arc"
       style="fill:#ffffff;fill-opacity:1;fill-rule:nonzero;stroke:#000000;stroke-width:6.91750717;stroke-miterlimit:4;stroke-opacity:0.82312933;stroke-dasharray:none"
       id="path3844"
       sodipodi:cx="381.83768"
       sodipodi:cy="405.86456"
       sodipodi:rx="111.11678"
       sodipodi:ry="111.11678"
       d="m 492.95446,405.86456 c 0,61.36811 -49.74868,111.11679 -111.11678,111.11679 -61.36811,0 -111.11679,-49.74868 -111.11679,-111.11679 0,-61.3681 49.74868,-111.11678 111.11679,-111.11678 61.3681,0 111.11678,49.74868 111.11678,111.11678 z"
       transform="matrix(0.1156486,0,0,0.1156486,337.74009,358.89941)"
       mask="url(#mask4291)" />
    <path
       transform="matrix(0.12977593,0,0,0.12977593,332.34574,353.16563)"
       d="m 492.95446,405.86456 c 0,61.36811 -49.74868,111.11679 -111.11678,111.11679 -61.36811,0 -111.11679,-49.74868 -111.11679,-111.11679 0,-61.3681 49.74868,-111.11678 111.11679,-111.11678 61.3681,0 111.11678,49.74868 111.11678,111.11678 z"
       sodipodi:ry="111.11678"
       sodipodi:rx="111.11678"
       sodipodi:cy="405.86456"
       sodipodi:cx="381.83768"
       id="path4124"
       style="fill:#ffffff;fill-opacity:1;fill-rule:nonzero;stroke:#000000;stroke-width:6.16447115;stroke-miterlimit:4;stroke-opacity:0.82312933;stroke-dasharray:none"
       sodipodi:type="arc"
       inkscape:export-xdpi="93.620003"
       inkscape:export-ydpi="93.620003"
       mask="url(#mask4287)" />
    <path
       sodipodi:type="arc"
       style="fill:url(#radialGradient3761);fill-opacity:1;fill-rule:nonzero;stroke:none;"
       id="path3753"
       sodipodi:cx="381.83768"
       sodipodi:cy="405.86456"
       sodipodi:rx="111.11678"
       sodipodi:ry="111.11678"
       d="m 492.95446,405.86456 c 0,61.36811 -49.74868,111.11679 -111.11678,111.11679 -61.36811,0 -111.11679,-49.74868 -111.11679,-111.11679 0,-61.3681 49.74868,-111.11678 111.11679,-111.11678 61.3681,0 111.11678,49.74868 111.11678,111.11678 z"
       transform="matrix(0.12977593,0,0,0.12977593,332.34574,353.16563)"
       mask="url(#mask4283)" />
    <path
       style="fill:none;stroke:#000000;stroke-width:0.80000001;stroke-linecap:butt;stroke-linejoin:miter;stroke-miterlimit:4;stroke-opacity:0.82312933;stroke-dasharray:none"
       d="m 386.38001,391.55458 c 0,0 1.85936,8.09848 1.81301,14.99625 -0.0464,6.89776 -1.81301,13.56055 -1.81301,13.56055"
       id="path3765"
       inkscape:connector-curvature="0"
       sodipodi:nodetypes="czc"
       mask="url(#mask4279)" />
    <path
       inkscape:connector-curvature="0"
       id="path3767"
       d="m 392.44281,395.56095 c 1.30209,3.486 2.69917,6.91899 2.63347,11.1248 -0.0657,4.20582 -0.9949,6.26334 -2.63347,9.45582"
       style="fill:none;stroke:#000000;stroke-width:0.80000001;stroke-linecap:butt;stroke-linejoin:miter;stroke-miterlimit:4;stroke-opacity:0.82312933;stroke-dasharray:none"
       sodipodi:nodetypes="czc"
       mask="url(#mask4275)" />
    <path
       inkscape:connector-curvature="0"
       id="path3773"
       d="m 380.97268,391.26558 0,29.13483"
       style="fill:none;stroke:#000000;stroke-width:0.80000001;stroke-linecap:butt;stroke-linejoin:miter;stroke-miterlimit:4;stroke-opacity:0.82312933;stroke-dasharray:none"
       mask="url(#mask4271)" />
    <path
       style="fill:none;stroke:#000000;stroke-width:0.80000001;stroke-linecap:butt;stroke-linejoin:miter;stroke-miterlimit:4;stroke-opacity:0.82312933;stroke-dasharray:none"
       d="m 375.56535,392.30273 c 0,0 -2.10458,8.22533 -2.10455,14.3439 2e-5,6.11857 2.10455,12.7166 2.10455,12.7166"
       id="path3775"
       inkscape:connector-curvature="0"
       sodipodi:nodetypes="czc"
       mask="url(#mask4267)" />
    <path
       inkscape:connector-curvature="0"
       id="path3777"
       d="m 370.15802,396.14377 c 0,0 -1.66281,6.43773 -1.68845,10.58683 -0.0256,4.14909 1.68845,8.79157 1.68845,8.79157"
       style="fill:none;stroke:#000000;stroke-width:0.80000001;stroke-linecap:butt;stroke-linejoin:miter;stroke-miterlimit:4;stroke-opacity:0.82312933;stroke-dasharray:none"
       sodipodi:nodetypes="czc"
       mask="url(#mask4263)" />
    <path
       style="fill:none;stroke:#000000;stroke-width:0.80000001;stroke-linecap:butt;stroke-linejoin:miter;stroke-miterlimit:4;stroke-opacity:0.82312933;stroke-dasharray:none"
       d="m 395.72496,401.29493 -27.65177,0"
       id="path3779"
       inkscape:connector-curvature="0"
       mask="url(#mask4259)" />
    <path
       inkscape:connector-curvature="0"
       id="path3781"
       d="m 393.79242,395.8876 -23.78666,0"
       style="fill:none;stroke:#000000;stroke-width:0.80000001;stroke-linecap:butt;stroke-linejoin:miter;stroke-miterlimit:4;stroke-opacity:0.82312933;stroke-dasharray:none"
       mask="url(#mask4255)" />
    <path
       inkscape:connector-curvature="0"
       id="path3787"
       d="m 396.31702,406.70226 -28.83589,0"
       style="fill:none;stroke:#000000;stroke-width:0.80000001;stroke-linecap:butt;stroke-linejoin:miter;stroke-miterlimit:4;stroke-opacity:0.82312933;stroke-dasharray:none"
       mask="url(#mask4251)" />
    <path
       style="fill:none;stroke:#000000;stroke-width:0.80000001;stroke-linecap:butt;stroke-linejoin:miter;stroke-miterlimit:4;stroke-opacity:0.82312933;stroke-dasharray:none"
       d="m 395.18132,412.10959 -26.56449,0"
       id="path3789"
       inkscape:connector-curvature="0"
       mask="url(#mask4247)" />
    <path
       inkscape:connector-curvature="0"
       id="path3791"
       d="m 391.56692,417.51692 -19.33565,0"
       style="fill:none;stroke:#000000;stroke-width:0.80000001;stroke-linecap:butt;stroke-linejoin:miter;stroke-miterlimit:4;stroke-opacity:0.82312933;stroke-dasharray:none"
       mask="url(#mask4243)" />
    <path
       transform="matrix(0.12977593,0,0,0.12977593,332.34574,353.17787)"
       d="m 492.95446,405.86456 a 111.11678,111.11678 0 1 1 -222.23357,0 111.11678,111.11678 0 1 1 222.23357,0 z"
       sodipodi:ry="111.11678"
       sodipodi:rx="111.11678"
       sodipodi:cy="405.86456"
       sodipodi:cx="381.83768"
       id="path3816"
       style="fill:url(#radialGradient3818);fill-opacity:1;fill-rule:nonzero;stroke:none"
       sodipodi:type="arc"
       inkscape:export-xdpi="93.620003"
       inkscape:export-ydpi="93.620003"
       mask="url(#mask4239)" />
  </g>
</svg>
