<?xml version="1.0" encoding="UTF-8" standalone="no"?>
<!-- Created with Inkscape (http://www.inkscape.org/) -->

<svg
   xmlns:dc="http://purl.org/dc/elements/1.1/"
   xmlns:cc="http://creativecommons.org/ns#"
   xmlns:rdf="http://www.w3.org/1999/02/22-rdf-syntax-ns#"
   xmlns:svg="http://www.w3.org/2000/svg"
   xmlns="http://www.w3.org/2000/svg"
   xmlns:sodipodi="http://sodipodi.sourceforge.net/DTD/sodipodi-0.dtd"
   xmlns:inkscape="http://www.inkscape.org/namespaces/inkscape"
   width="59.46875"
   height="55.375"
   id="svg2"
   version="1.1"
   inkscape:version="0.48.3.1 r9886"
   sodipodi:docname="jumpnode.svg">
  <defs
     id="defs4" />
  <sodipodi:namedview
     id="base"
     pagecolor="#ffffff"
     bordercolor="#666666"
     borderopacity="1.0"
     inkscape:pageopacity="0.0"
     inkscape:pageshadow="2"
     inkscape:zoom="5.6"
     inkscape:cx="37.637479"
     inkscape:cy="22.084843"
     inkscape:document-units="px"
     inkscape:current-layer="layer1"
     showgrid="false"
     fit-margin-top="0"
     fit-margin-left="0"
     fit-margin-right="0"
     fit-margin-bottom="0"
     inkscape:window-width="1560"
     inkscape:window-height="911"
     inkscape:window-x="254"
     inkscape:window-y="167"
     inkscape:window-maximized="0" />
  <metadata
     id="metadata7">
    <rdf:RDF>
      <cc:Work
         rdf:about="">
        <dc:format>image/svg+xml</dc:format>
        <dc:type
           rdf:resource="http://purl.org/dc/dcmitype/StillImage" />
        <dc:title></dc:title>
      </cc:Work>
    </rdf:RDF>
  </metadata>
  <g
     inkscape:label="Ebene 1"
     inkscape:groupmode="layer"
     id="layer1"
     transform="translate(201.46875,-193.65625)">
    <path
       style="fill:none;stroke:#009c00;stroke-width:1;stroke-linecap:butt;stroke-linejoin:miter;stroke-miterlimit:4;stroke-opacity:1;stroke-dasharray:none"
       d="m -186.875,203.25504 3.125,-5.08929 6.42857,-2.23214 1.25,-1.78572 9.10714,0 0.80358,1.96429 6.69642,1.96429 3.21429,5.08928 -6.78571,-1.875 -4.375,-4.01786 -8.57143,0.0893 -3.66072,3.83929 z"
       id="path4008"
       inkscape:connector-curvature="0" />
    <path
       style="fill:none;stroke:#009c00;stroke-width:1;stroke-linecap:butt;stroke-linejoin:miter;stroke-miterlimit:4;stroke-opacity:1;stroke-dasharray:none"
       d="m -183.83929,197.98718 4.19643,3.21429"
       id="path4010"
       inkscape:connector-curvature="0" />
    <path
       style="fill:none;stroke:#009c00;stroke-width:1;stroke-linecap:butt;stroke-linejoin:miter;stroke-miterlimit:4;stroke-opacity:1;stroke-dasharray:none"
       d="m -163.03571,201.38004 3.57142,-3.39286"
       id="path4012"
       inkscape:connector-curvature="0" />
    <path
       style="fill:none;stroke:#009c00;stroke-width:1;stroke-linecap:butt;stroke-linejoin:miter;stroke-miterlimit:4;stroke-opacity:1;stroke-dasharray:none"
       d="m -192.94643,210.21932 -4.55357,4.73215 -3.30357,6.51785 -0.17857,6.16072 1.16071,4.28571 3.30357,5.08929 5.17857,5.71428 -4.10714,-6.16071 10.44643,-2.05357 -11.07143,-9.82143 0.80357,-8.48214 z"
       id="path4014"
       inkscape:connector-curvature="0" />
    <path
       style="fill:none;stroke:#009c00;stroke-width:1;stroke-linecap:butt;stroke-linejoin:miter;stroke-miterlimit:4;stroke-opacity:1;stroke-dasharray:none"
       d="m -195.53571,236.46932 -0.625,-4.64285 0,-7.32143"
       id="path4016"
       inkscape:connector-curvature="0" />
    <path
       style="fill:none;stroke:#009c00;stroke-width:1;stroke-linecap:butt;stroke-linejoin:miter;stroke-miterlimit:4;stroke-opacity:1;stroke-dasharray:none"
       d="m -185.08929,234.50504 -11.07142,-2.58929"
       id="path4018"
       inkscape:connector-curvature="0" />
    <path
       style="fill:none;stroke:#009c00;stroke-width:1;stroke-linecap:butt;stroke-linejoin:miter;stroke-miterlimit:4;stroke-opacity:1;stroke-dasharray:none"
       d="m -199.55357,232.36218 0.17857,-4.64286 0.80357,-6.16071 -1.69643,-1.25"
       id="path4020"
       inkscape:connector-curvature="0" />
    <path
       style="fill:none;stroke:#009c00;stroke-width:1;stroke-linecap:butt;stroke-linejoin:miter;stroke-miterlimit:4;stroke-opacity:1;stroke-dasharray:none"
       d="m -196.16071,232.00504 -3.39286,-3.83929 -1.60714,-0.625"
       id="path4022"
       inkscape:connector-curvature="0" />
    <path
       style="fill:none;stroke:#009c00;stroke-width:1;stroke-linecap:butt;stroke-linejoin:miter;stroke-miterlimit:4;stroke-opacity:1;stroke-dasharray:none"
       d="m -150.35714,210.30861 4.46428,5.26786 3.125,5.80357 0.26786,6.25 -1.69643,2.67857 -0.98214,3.39286 -2.32143,3.125 -4.46429,5.71428 3.30358,-5.08928 -9.28572,-3.30358 10.80357,-9.375 -0.80357,-8.21428 z"
       id="path4024"
       inkscape:connector-curvature="0" />
    <path
       style="fill:none;stroke:#009c00;stroke-width:1;stroke-linecap:butt;stroke-linejoin:miter;stroke-miterlimit:4;stroke-opacity:1;stroke-dasharray:none"
       d="m -157.85714,234.05861 10.625,-1.875 0.0893,-7.41072 2.05357,-1.25 0,-2.23214 2.05358,-0.53571"
       id="path4026"
       inkscape:connector-curvature="0" />
    <path
       style="fill:none;stroke:#009c00;stroke-width:1;stroke-linecap:butt;stroke-linejoin:miter;stroke-miterlimit:4;stroke-opacity:1;stroke-dasharray:none"
       d="m -148.83929,237.45147 1.60715,-5.44643 4.73214,-4.73215"
       id="path4028"
       inkscape:connector-curvature="0" />
    <path
       style="fill:none;stroke:#009c00;stroke-width:1;stroke-linecap:butt;stroke-linejoin:miter;stroke-miterlimit:4;stroke-opacity:1;stroke-dasharray:none"
       d="M -145.26786,229.77289 -145,223.34432"
       id="path4030"
       inkscape:connector-curvature="0" />
    <path
       style="fill:none;stroke:#009c00;stroke-width:1;stroke-linecap:butt;stroke-linejoin:miter;stroke-miterlimit:4;stroke-opacity:1;stroke-dasharray:none"
       d="m -185.71429,213.43361 8.92858,-8.03572 2.23214,-4.19642 2.41071,-3.03572 2.85715,3.125 1.42857,4.28572 8.39285,7.58928 -9.375,3.57143 1.96429,-5.625 -11.33929,0.17857 0.35715,5 z"
       id="path4032"
       inkscape:connector-curvature="0" />
    <path
       style="fill:none;stroke:#009c00;stroke-width:1;stroke-linecap:butt;stroke-linejoin:miter;stroke-miterlimit:4;stroke-opacity:1;stroke-dasharray:none"
       d="m -178.21429,211.20147 -7.41071,2.14285"
       id="path4034"
       inkscape:connector-curvature="0" />
    <path
       style="fill:none;stroke:#009c00;stroke-width:1;stroke-linecap:butt;stroke-linejoin:miter;stroke-miterlimit:4;stroke-opacity:1;stroke-dasharray:none"
       d="m -159.73214,212.98718 -7.41072,-1.875 -0.80357,-5.53571 -9.01786,0 -1.51785,5.71428"
       id="path4036"
       inkscape:connector-curvature="0" />
    <path
       style="fill:none;stroke:#009c00;stroke-width:1;stroke-linecap:butt;stroke-linejoin:miter;stroke-miterlimit:4;stroke-opacity:1;stroke-dasharray:none"
       d="m -174.64286,201.29075 5.17857,0"
       id="path4038"
       inkscape:connector-curvature="0" />
    <path
       style="fill:none;stroke:#009c00;stroke-width:1;stroke-linecap:butt;stroke-linejoin:miter;stroke-miterlimit:4;stroke-opacity:1;stroke-dasharray:none"
       d="m -186.07143,245.39789 6.875,3.03572 2.05357,0.0893 0.71429,-1.25 7.94643,0 1.42857,1.16072 2.32143,0 6.51785,-2.94643 -2.41071,-1.25 -4.28571,0 -1.42858,0.98214 -1.16071,0 -2.67857,-2.94643 -4.73214,-0.0893 -2.14286,3.03571 -1.69643,0.0893 -0.89286,-0.98214 -4.64285,-0.17858 z"
       id="path4040"
       inkscape:connector-curvature="0" />
    <path
       style="fill:none;stroke:#009c00;stroke-width:1;stroke-linecap:butt;stroke-linejoin:miter;stroke-miterlimit:4;stroke-opacity:1;stroke-dasharray:none"
       d="m -177.32143,245.21932 1.07143,1.875 0,0"
       id="path4042"
       inkscape:connector-curvature="0" />
    <path
       style="fill:none;stroke:#009c00;stroke-width:1;stroke-linecap:butt;stroke-linejoin:miter;stroke-miterlimit:4;stroke-opacity:1;stroke-dasharray:none"
       d="m -167.41071,245.39789 -0.98215,1.875"
       id="path4044"
       inkscape:connector-curvature="0" />
    <path
       style="fill:none;stroke:#009c00;stroke-width:1;stroke-linecap:butt;stroke-linejoin:miter;stroke-miterlimit:4;stroke-opacity:1;stroke-dasharray:none"
       d="m -165.71429,248.43361 3.39286,-4.10714"
       id="path4046"
       inkscape:connector-curvature="0" />
    <path
       style="fill:none;stroke:#009c00;stroke-width:1;stroke-linecap:butt;stroke-linejoin:miter;stroke-miterlimit:4;stroke-opacity:1;stroke-dasharray:none"
       d="m -179.01786,248.43361 -3.21428,-4.19643"
       id="path4048"
       inkscape:connector-curvature="0" />
    <path
       style="fill:none;stroke:#009c00;stroke-width:1;stroke-linecap:butt;stroke-linejoin:miter;stroke-miterlimit:4;stroke-opacity:1;stroke-dasharray:none"
       d="m -177.8125,216.38004 8.97321,0.26785 -3.30357,10.00001 z"
       id="path4050"
       inkscape:connector-curvature="0"
       sodipodi:nodetypes="cccc" />
    <path
       style="fill:none;stroke:#009c00;stroke-width:1;stroke-linecap:butt;stroke-linejoin:miter;stroke-miterlimit:4;stroke-opacity:1;stroke-dasharray:none"
       d="m -170.13393,242.18361 1.25,-3.61607 -3.34821,-5.08929 -4.375,5.22322 1.65178,3.48214"
       id="path4052"
       inkscape:connector-curvature="0" />
    <path
       style="fill:none;stroke:#009c00;stroke-width:1;stroke-linecap:butt;stroke-linejoin:miter;stroke-miterlimit:4;stroke-opacity:1;stroke-dasharray:none"
       d="m -168.92857,238.65682 -7.63393,0.0893"
       id="path4054"
       inkscape:connector-curvature="0" />
    <path
       style="fill:none;stroke:#009c00;stroke-width:1;stroke-linecap:butt;stroke-linejoin:miter;stroke-miterlimit:4;stroke-opacity:1;stroke-dasharray:none"
       d="m -175.17857,221.38004 4.82143,-0.0893 0,0 0,0"
       id="path4056"
       inkscape:connector-curvature="0" />
  </g>
</svg>
